HIERARCHY
ROOT pelvis
{
  OFFSET 0 100 0
  CHANNELS 6 Xposition Yposition Zposition Zrotation Xrotation Yrotation
  JOINT pelvis_right_femur
  {
    OFFSET -10.78128 -3.44521 -0.5502486
    CHANNELS 3 Zrotation Xrotation Yrotation
    JOINT right_femur_tibia
    {
      OFFSET -0.8047443 -44.0398 -0.1307829
      CHANNELS 3 Zrotation Xrotation Yrotation
      JOINT right_tibia_foot
      {
        OFFSET 3.006224 -47.83518 -5
        CHANNELS 3 Zrotation Xrotation Yrotation
        End Site
        {
          OFFSET 0 -5 15
        }
      }
    }
  }
  JOINT pelvis_left_femur
  {
    OFFSET 10.78128 -3.44521 -0.5502486
    CHANNELS 3 Zrotation Xrotation Yrotation
    JOINT left_femur_tibia
    {
      OFFSET 0.8047443 -44.0398 -0.1307829
      CHANNELS 3 Zrotation Xrotation Yrotation
      JOINT left_tibia_foot
      {
        OFFSET -4.370144 -48.10324 -4.275266
        CHANNELS 3 Zrotation Xrotation Yrotation
        End Site
        {
          OFFSET 0 -5 15
        }
      }
    }
  }
  JOINT pelvis_spine1
  {
    OFFSET 0 6.468898 -3.129235
    CHANNELS 3 Zrotation Xrotation Yrotation
    JOINT spine1
    {
      OFFSET 0 23.15396 4.99043
      CHANNELS 3 Zrotation Xrotation Yrotation
      JOINT spine2
      {
        OFFSET 0 20.79997 -5.064912
        CHANNELS 3 Zrotation Xrotation Yrotation
        JOINT neck
        {
          OFFSET 0 14.38658 9.616178
          CHANNELS 3 Zrotation Xrotation Yrotation
          End Site
          {
            OFFSET 0 20 0
          }
        }
      }
      JOINT right_manubrium
      {
        OFFSET -5.722621 16.35077 3.967754
        CHANNELS 3 Zrotation Xrotation Yrotation
        JOINT right_clavicle
        {
          OFFSET -13.16364 1.694482 -4.693211
          CHANNELS 3 Zrotation Xrotation Yrotation
          JOINT right_humerus
          {
            OFFSET -28.5034 -0.3100689 -2.792744
            CHANNELS 3 Zrotation Xrotation Yrotation
            JOINT right_radius
            {
              OFFSET -25.15693 0.02248979 -1.271978
              CHANNELS 3 Zrotation Xrotation Yrotation
              End Site
              {
                OFFSET -15 0 0
              }
            }
          }
        }
      }
      JOINT left_manubrium
      {
        OFFSET 5.722621 16.35077 3.967754
        CHANNELS 3 Zrotation Xrotation Yrotation
        JOINT left_clavicle
        {
          OFFSET 13.16364 1.694482 -4.693211
          CHANNELS 3 Zrotation Xrotation Yrotation
          JOINT left_humerus
          {
            OFFSET 29.39168 -1.063119 -2.237045
            CHANNELS 3 Zrotation Xrotation Yrotation
            JOINT left_radius
            {
              OFFSET 24.59957 -0.9528479 0.9047498
              CHANNELS 3 Zrotation Xrotation Yrotation
              End Site
              {
                OFFSET 15 -0 -0
              }
            }
          }
        }
      }
    }
  }
}
MOTION
Frames: 15
Frame Time: 0.0416666666667
13.90461 102.2369 225.6067 0.7971086 -6.451339 -2.478835 0.813972 11.34417 6.016223 -5.005622e-10 31.68712 3.484525e-10 2.455151 -12.58344 -3.544372 -1.400949 -18.11152 -7.085683 -2.36968e-09 18.99487 1.269954e-09 -6.127594 -10.73486 19.80375 -2.2468 0.1262404 7.197477 -0.5817011 8.668864 -3.836657 2.098861 22.32508 6.01112 1.906316 -16.83357 8.050616 2.884607 -19.73303 11.18882 81.32652 26.85345 -6.637224 -2.38704e-10 3.133332e-10 23.19934 -25.15109 13.89274 14.07382 5.068114 -15.58783 -0.8463059 -93.33698 22.27875 22.25595 -3.563889e-10 -2.029785e-10 -8.612031 -1.890245 8.327706 14.21107
14.57065 102.3764 231.6796 0.9189821 -6.941 -2.353431 0.3602385 9.906474 6.236413 -4.133039e-10 38.40741 4.763751e-10 2.423888 -10.11271 -4.139972 -2.49772 -15.28565 -8.207766 -2.587921e-09 20.45164 1.597465e-09 -6.090562 -11.06779 19.85106 -2.492011 0.2119228 6.7086 -0.7031085 8.607114 -3.806957 2.205037 22.59056 6.140217 1.961211 -16.70305 8.292863 3.197025 -18.82811 11.0341 81.67511 26.99255 -7.16488 -1.640112e-10 3.558449e-10 21.84643 -24.72477 13.50564 13.61965 4.855592 -15.24652 -0.9619535 -92.64491 22.8926 21.18933 -4.645711e-10 -2.896808e-10 -7.9252 -1.874 8.432357 14.22673
15.22583 102.965 237.6363 1.088796 -7.310602 -1.994134 -0.0980257 6.939035 6.323659 -3.018353e-10 45.48556 5.575152e-10 2.399013 -7.293784 -4.878756 -3.795857 -10.99533 -9.61655 -2.905462e-09 20.91727 1.668817e-09 -5.860694 -12.02344 19.86228 -2.818728 0.2693901 6.020292 -0.7542527 8.508169 -3.943368 2.305391 22.91469 6.351073 2.039094 -16.68548 8.634345 3.560476 -17.75583 10.84787 82.50661 27.28969 -8.262183 -8.910493e-11 3.908786e-10 20.11905 -24.12248 13.07788 13.0171 4.773922 -15.10754 -1.12751 -91.82212 23.64683 19.5766 -5.798386e-10 -3.707996e-10 -7.774726 -1.704124 8.686357 14.09311
15.86445 103.8686 243.4134 1.240804 -7.33589 -1.434442 -0.3616863 2.871961 6.203373 -1.733122e-10 50.55241 5.589575e-10 2.257323 -4.863726 -5.518765 -4.908456 -6.093899 -10.93617 -3.15365e-09 20.36044 1.460825e-09 -5.414265 -13.30661 19.7173 -3.109176 0.2555263 5.263532 -0.6750937 8.373897 -4.2443 2.351333 23.09127 6.566825 2.121085 -16.799 8.936169 3.882379 -16.70783 10.6391 83.23125 27.67682 -9.67072 -2.991684e-11 4.038599e-10 18.27268 -23.21152 12.65362 12.25436 4.830563 -15.21817 -1.302652 -90.61253 24.34865 17.6616 -6.607298e-10 -4.175364e-10 -8.303927 -1.337308 9.062978 13.71161
16.47091 104.8636 249.0376 1.341688 -7.065886 -0.734267 -0.3764356 -1.969636 5.833382 2.071271e-11 52.45365 4.104564e-10 2.040176 -3.148244 -6.040917 -5.657 -1.107101 -11.88893 -3.282523e-09 19.0431 9.629471e-10 -4.914842 -14.82698 19.3754 -3.303269 0.1891826 4.531876 -0.4725619 8.251673 -4.709599 2.348118 23.14669 6.760089 2.193027 -17.00118 9.166334 4.06494 -15.8189 10.45978 84.12395 28.0039 -11.41125 2.711671e-12 3.894043e-10 16.51218 -22.29665 12.37341 11.49289 5.081774 -15.69718 -1.502184 -89.28218 24.78684 15.52923 -7.00377e-10 -4.119009e-10 -9.697521 -0.7755164 9.492169 13.07645
17.04099 105.6716 254.5854 1.383272 -6.553892 0.03286616 -0.2131377 -6.930941 5.240126 2.443869e-10 50.58967 1.227508e-10 1.874693 -2.455515 -6.399009 -5.961243 3.226237 -12.29704 -3.350724e-09 16.6567 1.424532e-10 -4.481102 -16.47363 18.8522 -3.382938 0.09470499 3.924861 -0.1885049 8.126971 -5.268431 2.303762 23.04713 6.895156 2.223122 -17.18092 9.288804 4.026812 -15.21151 10.31352 84.99902 28.11602 -13.17075 -6.034168e-12 3.491218e-10 15.14492 -21.63259 12.3198 10.90023 5.533579 -16.47525 -1.69771 -87.89963 24.82669 13.34439 -6.937844e-10 -3.485316e-10 -11.85114 -0.1184253 9.839224 12.26718
17.55548 106.1034 260.0934 1.330827 -5.830549 0.7885643 0.1410821 -11.91202 4.500596 4.323773e-10 45.46288 -2.057581e-10 1.635026 -2.572753 -6.591499 -5.923782 6.957812 -12.25873 -3.29709e-09 14.05929 -8.028306e-10 -4.133576 -18.01974 18.09227 -3.324294 -0.03190992 3.42309 0.1744637 8.009178 -5.892369 2.219309 22.76019 6.953272 2.220132 -17.33448 9.276142 3.814397 -14.77885 10.18753 85.60423 28.05341 -14.90197 -4.029335e-11 2.8792e-10 13.98103 -21.01862 12.41814 10.34584 6.099232 -17.4733 -1.884272 -86.27568 24.50171 11.1228 -6.404773e-10 -2.420316e-10 -14.56055 0.6490509 10.1176 11.26263
17.99448 106.0318 265.695 1.225813 -5.165479 1.48456 0.5878394 -16.61213 3.724189 5.938673e-10 38.26304 -5.629753e-10 1.575211 -3.253448 -6.831017 -5.649233 10.05504 -11.72812 -3.154076e-09 12.13737 -1.707165e-09 -4.184351 -19.44784 17.13935 -3.158633 -0.1078598 3.050036 0.5446765 7.9258 -6.54157 2.148299 22.49272 6.965815 2.179524 -17.376 9.216104 3.465991 -14.44521 10.12252 86.55696 27.75949 -16.72233 -9.025595e-11 2.218842e-10 13.03283 -20.84166 12.79701 9.978271 6.766994 -18.65471 -2.058109 -84.93891 23.87304 8.846138 -5.751493e-10 -1.108342e-10 -17.70642 1.356534 10.2015 10.2932
18.34475 105.4889 271.3394 1.047335 -4.438368 2.078972 1.125046 -20.81054 3.023968 6.606998e-10 30.43584 -8.303895e-10 1.30575 -4.132385 -6.914715 -5.297735 12.58657 -11.13361 -2.860908e-09 10.93322 -2.432306e-09 -4.220563 -20.48128 16.12481 -2.914577 -0.2176506 2.752857 0.9313337 7.869957 -7.14546 2.052529 22.1125 6.922529 2.142459 -17.44536 9.060639 3.108761 -14.1801 10.06945 87.03069 27.47608 -18.31388 -1.35386e-10 1.526244e-10 12.13022 -20.45807 13.11882 9.530979 7.350475 -19.78275 -2.204242 -83.48526 23.13428 6.881636 -4.822652e-10 1.558619e-11 -20.6491 2.102386 10.29938 9.266749
18.60152 104.5813 277.0172 0.8507296 -3.858716 2.568804 1.673803 -24.18741 2.492611 6.98113e-10 23.57185 -1.026566e-09 0.9518836 -4.846972 -6.972393 -4.974491 14.5753 -10.54906 -2.427389e-09 11.04458 -2.847582e-09 -4.351053 -21.0686 15.16058 -2.640912 -0.3114877 2.528332 1.267655 7.866064 -7.646477 1.969601 21.77244 6.853558 2.117522 -17.50394 8.881221 2.80682 -13.91844 10.04582 87.36877 27.20641 -19.68831 -1.619814e-10 9.343518e-11 11.24892 -20.05364 13.38875 9.080113 7.790869 -20.75486 -2.333758 -82.23572 22.41811 5.287357 -3.957177e-10 1.172524e-10 -23.08676 2.772888 10.37616 8.350962
18.77479 103.5326 282.7379 0.6887077 -3.583553 2.973313 2.176487 -26.47102 2.222238 7.602405e-10 19.29309 -1.139918e-09 0.5663381 -5.031353 -7.086881 -4.791138 16.08142 -10.11126 -1.860095e-09 13.0062 -2.835407e-09 -4.60264 -21.14385 14.37615 -2.387208 -0.3587603 2.363892 1.501067 7.937535 -7.992448 1.926882 21.59858 6.790152 2.121233 -17.554 8.741067 2.64348 -13.60062 10.06507 87.80543 26.99695 -20.84036 -1.547137e-10 5.608972e-11 10.34059 -19.69445 13.56761 8.652287 8.012805 -21.4586 -2.456571 -81.43627 21.90519 4.155673 -3.458938e-10 1.762219e-10 -24.68385 3.282266 10.44508 7.687016
18.90415 102.6273 288.5567 0.6355924 -3.781789 3.3436 2.512803 -27.35736 2.252226 8.908211e-10 19.03455 -1.172141e-09 0.3051766 -4.416687 -7.349619 -4.837076 17.07984 -9.903177 -1.291312e-09 16.82268 -2.388415e-09 -5.023874 -20.76132 13.93233 -2.221349 -0.3173277 2.260082 1.565199 8.095113 -8.1291 1.957548 21.73312 6.769619 2.158646 -17.5645 8.718183 2.665061 -13.21866 10.13944 88.65887 26.82693 -21.72115 -1.074732e-10 5.132902e-11 9.481779 -19.60335 13.66999 8.370205 7.985977 -21.79699 -2.579422 -81.41743 21.75068 3.557949 -3.64042e-10 1.807489e-10 -25.17458 3.512565 10.48587 7.444653
19.02657 102.1342 294.4293 0.6180767 -4.217854 3.678423 2.841339 -26.6494 2.528338 1.029135e-09 21.39727 -1.097093e-09 -0.1704695 -3.360885 -7.483297 -4.958928 17.10999 -9.908048 -6.541844e-10 22.2359 -1.545136e-09 -5.337257 -19.67138 13.78928 -2.064525 -0.2752467 2.267634 1.520658 8.351544 -8.051464 2.003314 21.95575 6.728878 2.235825 -17.62615 8.67978 2.818876 -12.92215 10.25503 89.20005 26.7742 -22.0918 -2.567466e-11 6.275672e-11 8.752836 -19.40217 13.57052 8.104485 7.670424 -21.77668 -2.698244 -81.76726 21.83092 3.793207 -4.04537e-10 1.406138e-10 -24.50608 3.627717 10.61238 7.406003
19.15601 102.1968 300.3554 0.5744012 -4.776324 3.920348 3.340394 -24.36791 3.01174 1.139733e-09 24.21888 -9.419375e-10 -0.8496472 -2.506101 -7.44 -4.951899 15.74555 -9.83207 1.143785e-10 29.57808 -3.449453e-10 -5.715307 -17.80969 13.80547 -1.819389 -0.2358983 2.489031 1.429089 8.729499 -7.829144 2.045778 22.23163 6.639066 2.337752 -17.76872 8.574593 3.029326 -12.83784 10.46973 89.60794 26.81687 -22.09879 7.603321e-11 8.217377e-11 8.325571 -19.20963 13.461 7.909202 7.16107 -21.59599 -2.780543 -82.68797 22.00719 4.916627 -4.39589e-10 7.897799e-11 -23.14425 3.630676 10.7629 7.559177
19.31177 102.8244 306.2418 0.4688478 -5.208403 4.006791 3.94132 -20.48823 3.570252 1.132586e-09 26.32291 -6.865772e-10 -1.814738 -2.316958 -7.010779 -4.713122 12.6594 -9.709059 8.358049e-10 37.02137 9.74132e-10 -5.874918 -15.33424 14.04002 -1.500279 -0.2646516 2.953059 1.324293 9.162101 -7.460495 2.037979 22.37202 6.478288 2.448018 -18.0326 8.340509 3.23392 -13.15442 10.74176 89.25056 27.03101 -21.42754 1.712355e-10 9.973405e-11 8.485532 -18.85217 13.26329 7.795725 6.506533 -21.22432 -2.785639 -83.88008 22.17496 7.111454 -4.30925e-10 9.336941e-12 -21.13544 3.577188 10.98049 7.800968
